<svg xmlns="http://www.w3.org/2000/svg" xmlns:xlink="http://www.w3.org/1999/xlink" viewBox="0 0 196.99 196.99"><defs><style>.a{fill:url(#a);}.b{fill:#3c3c3b;}.c,.d{fill:#afca0b;}.c{stroke:#fff;stroke-linejoin:round;stroke-width:11.34px;}.e{fill:#fff;}</style><radialGradient id="a" cx="98.5" cy="98.5" r="98.5" gradientUnits="userSpaceOnUse"><stop offset="0" stop-color="#afca0b"/><stop offset="1" stop-color="#90ae00"/></radialGradient></defs><rect class="a" width="196.99" height="196.99"/><path class="b" d="M168.67,105a27.5,27.5,0,0,0-4.12-2.86L123.69,79.58l6.18-5.34a17.15,17.15,0,0,0,6.29-13.15A19.57,19.57,0,0,0,129.06,46a25.78,25.78,0,0,0-5.71-3.73,27.59,27.59,0,0,0-24.81.78L36.75,77.35c-7,3.79-11.31,10.63-11.31,18a19.86,19.86,0,0,0,7.24,15.19,21.81,21.81,0,0,0,4.12,2.87l40.8,22.51-6.17,5.34a17.27,17.27,0,0,0-6.29,13.1,19.55,19.55,0,0,0,7.15,15.15A24.52,24.52,0,0,0,78,173.22a27.74,27.74,0,0,0,11.68,2.58,26.77,26.77,0,0,0,13.12-3.36L164.55,138a22.41,22.41,0,0,0,4.76-3.44C178.15,126.25,177.86,113,168.67,105Z"/><path class="c" d="M161.43,95.71a24.58,24.58,0,0,0-3.81-2.93L119.85,69.7l5.71-5.47a18.25,18.25,0,0,0,5.82-13.43,20.91,20.91,0,0,0-6.57-15.4,23.13,23.13,0,0,0-28.21-3l-57.13,35a21.4,21.4,0,0,0-3.77,33.94,20.44,20.44,0,0,0,3.81,2.93l37.73,23-5.71,5.46a18.46,18.46,0,0,0-5.82,13.39,20.93,20.93,0,0,0,6.62,15.49,22.65,22.65,0,0,0,5.23,3.76A23.6,23.6,0,0,0,88.36,168a23,23,0,0,0,12.13-3.43l57.13-35.2a21.33,21.33,0,0,0,3.81-33.69Z"/><path class="d" d="M161.43,95.71a24.58,24.58,0,0,0-3.81-2.93L119.85,69.7l5.71-5.46a18.29,18.29,0,0,0,5.82-13.44,20.91,20.91,0,0,0-6.57-15.4,23.13,23.13,0,0,0-28.21-3l-57.13,35a21.4,21.4,0,0,0-3.77,33.94,20.44,20.44,0,0,0,3.81,2.93l37.73,23-5.71,5.46a18.46,18.46,0,0,0-5.82,13.39,20.93,20.93,0,0,0,6.62,15.49,22.65,22.65,0,0,0,5.23,3.76A23.6,23.6,0,0,0,88.36,168a23,23,0,0,0,12.13-3.43l57.13-35.2a21.33,21.33,0,0,0,3.81-33.69Z"/><path class="b" d="M57.59,106.55,54.12,64.23l41.36.08-3.66,42.24L75,111.44Z"/><path class="e" d="M90.8,69H58.45l.88,6.31H74.68L59.57,81.82l.88,6.09H82.7l-.8,8.52L74.36,97.9l-6.83-1.75L67,91.31H60.73l.84,10.06L75,105.12,87.92,101l1.65-19.66H75.94L90.8,75.19Z"/><path class="b" d="M105,132.78,101.5,90.45l41.36.08-3.66,42.25-16.87,4.88Z"/><polygon class="e" points="134.12 95.25 131.82 95.25 105.82 95.25 106.7 101.55 131.23 101.55 130.97 104.4 130.67 107.58 130.06 114.14 129.27 122.65 121.73 124.12 114.9 122.37 114.37 117.53 108.1 117.53 108.94 127.59 122.4 131.34 135.3 127.24 136.94 107.58 137.53 101.68 138.17 95.25 134.12 95.25"/></svg>